<svg xmlns="http://www.w3.org/2000/svg" viewBox="0 0 300 100" data-loop="3">
  <g data-part="scene">
    <rect x="0" y="0" width="300" height="100" fill="#05194C"/>
    <rect x="0" y="84" width="300" height="16" fill="#F3F5F4" opacity="0.4"/>
  </g>
  <g data-part="machine">
    <rect x="140" y="60" width="140" height="24" rx="8" fill="#F3F5F4" opacity="0.8"/>
    <rect x="150" y="26" width="40" height="34" rx="6" fill="#F3F5F4"/>
    <rect x="168" y="26" width="4" height="34" rx="2" fill="#05194C" opacity="0.6"/>
    <rect x="112" y="40" width="24" height="18" rx="5" fill="#F3F5F4"/>
    <rect x="121" y="56" width="6" height="28" rx="3" fill="#F3F5F4" opacity="0.6"/>
    <circle cx="119" cy="49" r="2.5" fill="#FFB32C"/>
    <circle cx="129" cy="49" r="2.5" fill="#05194C"/>
  </g>
  <g data-part="figure">
    <path d="M48 84 V70 A22 22 0 0 1 92 70 V84 Z" fill="#FFB32C"/>
    <path d="M57 40 A13 13 0 0 1 83 40 V41 A3 3 0 0 1 80 44 H60 A3 3 0 0 1 57 41 Z" fill="#FFB32C"/>
  </g>
  <g data-part="arm">
    <path d="M84 62 Q98 56 114 52" stroke-width="9" fill="none" stroke="#FFB32C" stroke-linecap="round" stroke-linejoin="round"/>
  </g>
  <g data-part="injector" data-motion="shuttle" data-amp="-8" data-origin="236 46">
    <rect x="200" y="38" width="70" height="16" rx="8" fill="#F3F5F4"/>
    <rect x="190" y="42" width="14" height="8" rx="4" fill="#FFB32C"/>
    <path d="M236 14 H262 L254 34 H244 Z" fill="#FFB32C"/>
    <path d="M236 14 H262 L254 34 H244 Z" stroke-width="4" fill="none" stroke="#FFB32C" stroke-linecap="round" stroke-linejoin="round"/>
  </g>
</svg>
